<svg id="visual" viewBox="0 0 900 600" width="900" height="600" xmlns="http://www.w3.org/2000/svg" xmlns:xlink="http://www.w3.org/1999/xlink" version="1.1"><path d="M599 600L613 585.7C627 571.3 655 542.7 681.7 514.2C708.3 485.7 733.7 457.3 727.5 428.8C721.3 400.3 683.7 371.7 662.5 343C641.3 314.3 636.7 285.7 648.7 257C660.7 228.3 689.3 199.7 690.2 171.2C691 142.7 664 114.3 644.5 85.8C625 57.3 613 28.7 607 14.3L601 0L900 0L900 14.3C900 28.7 900 57.3 900 85.8C900 114.3 900 142.7 900 171.2C900 199.7 900 228.3 900 257C900 285.7 900 314.3 900 343C900 371.7 900 400.3 900 428.8C900 457.3 900 485.7 900 514.2C900 542.7 900 571.3 900 585.7L900 600Z" fill="#0066FF" stroke-linecap="round" stroke-linejoin="miter"></path></svg>