<svg id="visual" viewBox="0 0 900 600" width="900" height="600" xmlns="http://www.w3.org/2000/svg" xmlns:xlink="http://www.w3.org/1999/xlink" version="1.1"><path d="M726 600L724.2 583.3C722.3 566.7 718.7 533.3 700.8 500C683 466.7 651 433.3 655 400C659 366.7 699 333.3 699.7 300C700.3 266.7 661.7 233.3 637.2 200C612.7 166.7 602.3 133.3 612 100C621.7 66.7 651.3 33.3 666.2 16.7L681 0L900 0L900 16.7C900 33.3 900 66.7 900 100C900 133.3 900 166.7 900 200C900 233.3 900 266.7 900 300C900 333.3 900 366.7 900 400C900 433.3 900 466.7 900 500C900 533.3 900 566.7 900 583.3L900 600Z" fill="#052d69" stroke-linecap="round" stroke-linejoin="miter"></path></svg>